<?xml version="1.0" encoding="UTF-8" standalone="no"?>
<!DOCTYPE svg PUBLIC "-//W3C//DTD SVG 1.1//EN"
 "http://www.w3.org/Graphics/SVG/1.1/DTD/svg11.dtd">
<!-- Generated by graphviz version 2.36.0 (20140111.2315)
 -->
<!-- Title: DD Pages: 1 -->
<svg width="293pt" height="404pt"
 viewBox="0.00 0.00 293.00 404.00" xmlns="http://www.w3.org/2000/svg" xmlns:xlink="http://www.w3.org/1999/xlink">
<g id="graph0" class="graph" transform="scale(1 1) rotate(0) translate(4 400)">
<title>DD</title>
<polygon fill="white" stroke="none" points="-4,4 -4,-400 289,-400 289,4 -4,4"/>
<!-- CONST NODES -->
<!--  0  -->
<g id="node2" class="node"><title> 0 </title>
<text text-anchor="middle" x="55" y="-302.3" font-family="Times,serif" font-size="14.00"> 0 </text>
</g>
<!--  1  -->
<g id="node3" class="node"><title> 1 </title>
<text text-anchor="middle" x="55" y="-230.3" font-family="Times,serif" font-size="14.00"> 1 </text>
</g>
<!--  0 &#45;&gt; 1  -->
<!--  2  -->
<g id="node4" class="node"><title> 2 </title>
<text text-anchor="middle" x="55" y="-158.3" font-family="Times,serif" font-size="14.00"> 2 </text>
</g>
<!--  1 &#45;&gt; 2  -->
<!--  3  -->
<g id="node5" class="node"><title> 3 </title>
<text text-anchor="middle" x="55" y="-86.3" font-family="Times,serif" font-size="14.00"> 3 </text>
</g>
<!--  2 &#45;&gt; 3  -->
<!--  3 &#45;&gt;CONST NODES -->
<!-- F0 -->
<g id="node6" class="node"><title>F0</title>
<polygon fill="none" stroke="black" points="284,-396 230,-396 230,-360 284,-360 284,-396"/>
<text text-anchor="middle" x="257" y="-374.3" font-family="Times,serif" font-size="14.00">F0</text>
</g>
<!-- 0x22 -->
<g id="node7" class="node"><title>0x22</title>
<ellipse fill="none" stroke="black" cx="257" cy="-306" rx="28.3955" ry="18"/>
<text text-anchor="middle" x="257" y="-302.3" font-family="Times,serif" font-size="14.00">0x22</text>
</g>
<!-- F0&#45;&gt;0x22 -->
<g id="edge5" class="edge"><title>F0&#45;&gt;0x22</title>
<path fill="none" stroke="black" d="M257,-359.697C257,-348.846 257,-334.917 257,-324.104"/>
</g>
<!-- 0x21 -->
<g id="node8" class="node"><title>0x21</title>
<ellipse fill="none" stroke="black" cx="229" cy="-234" rx="28.3955" ry="18"/>
<text text-anchor="middle" x="229" y="-230.3" font-family="Times,serif" font-size="14.00">0x21</text>
</g>
<!-- 0x22&#45;&gt;0x21 -->
<g id="edge7" class="edge"><title>0x22&#45;&gt;0x21</title>
<path fill="none" stroke="black" stroke-dasharray="5,2" d="M250.364,-288.411C245.966,-277.414 240.211,-263.027 235.782,-251.956"/>
</g>
<!-- 0x11 -->
<g id="node11" class="node"><title>0x11</title>
<polygon fill="none" stroke="black" points="264,-36 210,-36 210,-0 264,-0 264,-36"/>
<text text-anchor="middle" x="237" y="-14.3" font-family="Times,serif" font-size="14.00">0</text>
</g>
<!-- 0x22&#45;&gt;0x11 -->
<g id="edge6" class="edge"><title>0x22&#45;&gt;0x11</title>
<path fill="none" stroke="black" d="M260.654,-287.908C262.676,-277.569 264.981,-264.09 266,-252 272.831,-170.964 251.404,-74.7286 241.613,-36.1968"/>
</g>
<!-- 0x20 -->
<g id="node9" class="node"><title>0x20</title>
<ellipse fill="none" stroke="black" cx="191" cy="-162" rx="28.3955" ry="18"/>
<text text-anchor="middle" x="191" y="-158.3" font-family="Times,serif" font-size="14.00">0x20</text>
</g>
<!-- 0x21&#45;&gt;0x20 -->
<g id="edge9" class="edge"><title>0x21&#45;&gt;0x20</title>
<path fill="none" stroke="black" stroke-dasharray="5,2" d="M220.187,-216.765C214.048,-205.456 205.894,-190.437 199.766,-179.147"/>
</g>
<!-- 0x21&#45;&gt;0x11 -->
<g id="edge8" class="edge"><title>0x21&#45;&gt;0x11</title>
<path fill="none" stroke="black" d="M229.641,-215.849C231.139,-175.78 234.855,-76.3826 236.356,-36.2325"/>
</g>
<!-- 0x1f -->
<g id="node10" class="node"><title>0x1f</title>
<ellipse fill="none" stroke="black" cx="155" cy="-90" rx="27" ry="18"/>
<text text-anchor="middle" x="155" y="-86.3" font-family="Times,serif" font-size="14.00">0x1f</text>
</g>
<!-- 0x20&#45;&gt;0x1f -->
<g id="edge11" class="edge"><title>0x20&#45;&gt;0x1f</title>
<path fill="none" stroke="black" stroke-dasharray="5,2" d="M182.65,-144.765C176.835,-133.456 169.11,-118.437 163.304,-107.147"/>
</g>
<!-- 0x20&#45;&gt;0x11 -->
<g id="edge10" class="edge"><title>0x20&#45;&gt;0x11</title>
<path fill="none" stroke="black" d="M196.457,-144.153C205.263,-116.971 222.514,-63.7165 231.406,-36.2678"/>
</g>
<!-- 0x1f&#45;&gt;0x11 -->
<g id="edge12" class="edge"><title>0x1f&#45;&gt;0x11</title>
<path fill="none" stroke="black" d="M171.201,-75.1703C184.363,-63.9342 202.987,-48.0356 217.063,-36.019"/>
</g>
<!-- 0x10 -->
<g id="node12" class="node"><title>0x10</title>
<polygon fill="none" stroke="black" points="182,-36 128,-36 128,-0 182,-0 182,-36"/>
<text text-anchor="middle" x="155" y="-14.3" font-family="Times,serif" font-size="14.00">1</text>
</g>
<!-- 0x1f&#45;&gt;0x10 -->
<g id="edge13" class="edge"><title>0x1f&#45;&gt;0x10</title>
<path fill="none" stroke="black" stroke-dasharray="5,2" d="M155,-71.6966C155,-60.8463 155,-46.9167 155,-36.1043"/>
</g>
</g>
</svg>
