<?xml version="1.0" encoding="UTF-8" standalone="no"?>
<!DOCTYPE svg PUBLIC "-//W3C//DTD SVG 1.1//EN"
 "http://www.w3.org/Graphics/SVG/1.1/DTD/svg11.dtd">
<!-- Generated by graphviz version 2.36.0 (20140111.2315)
 -->
<!-- Title: DD Pages: 1 -->
<svg width="265pt" height="260pt"
 viewBox="0.00 0.00 265.00 260.00" xmlns="http://www.w3.org/2000/svg" xmlns:xlink="http://www.w3.org/1999/xlink">
<g id="graph0" class="graph" transform="scale(1 1) rotate(0) translate(4 256)">
<title>DD</title>
<polygon fill="white" stroke="none" points="-4,4 -4,-256 261,-256 261,4 -4,4"/>
<!-- CONST NODES -->
<!--  0  -->
<g id="node2" class="node"><title> 0 </title>
<text text-anchor="middle" x="55" y="-158.3" font-family="Times,serif" font-size="14.00"> 0 </text>
</g>
<!--  1  -->
<g id="node3" class="node"><title> 1 </title>
<text text-anchor="middle" x="55" y="-86.3" font-family="Times,serif" font-size="14.00"> 1 </text>
</g>
<!--  0 &#45;&gt; 1  -->
<!--  1 &#45;&gt;CONST NODES -->
<!-- F0 -->
<g id="node4" class="node"><title>F0</title>
<polygon fill="none" stroke="black" points="218,-252 164,-252 164,-216 218,-216 218,-252"/>
<text text-anchor="middle" x="191" y="-230.3" font-family="Times,serif" font-size="14.00">F0</text>
</g>
<!-- 0x1a -->
<g id="node5" class="node"><title>0x1a</title>
<ellipse fill="none" stroke="black" cx="191" cy="-162" rx="27.4223" ry="18"/>
<text text-anchor="middle" x="191" y="-158.3" font-family="Times,serif" font-size="14.00">0x1a</text>
</g>
<!-- F0&#45;&gt;0x1a -->
<g id="edge3" class="edge"><title>F0&#45;&gt;0x1a</title>
<path fill="none" stroke="black" d="M191,-215.697C191,-204.846 191,-190.917 191,-180.104"/>
</g>
<!-- 0x17 -->
<g id="node6" class="node"><title>0x17</title>
<ellipse fill="none" stroke="black" cx="154" cy="-90" rx="28.3955" ry="18"/>
<text text-anchor="middle" x="154" y="-86.3" font-family="Times,serif" font-size="14.00">0x17</text>
</g>
<!-- 0x1a&#45;&gt;0x17 -->
<g id="edge5" class="edge"><title>0x1a&#45;&gt;0x17</title>
<path fill="none" stroke="black" stroke-dasharray="5,2" d="M182.418,-144.765C176.526,-133.618 168.729,-118.865 162.792,-107.633"/>
</g>
<!-- 0x18 -->
<g id="node7" class="node"><title>0x18</title>
<ellipse fill="none" stroke="black" cx="229" cy="-90" rx="28.3955" ry="18"/>
<text text-anchor="middle" x="229" y="-86.3" font-family="Times,serif" font-size="14.00">0x18</text>
</g>
<!-- 0x1a&#45;&gt;0x18 -->
<g id="edge4" class="edge"><title>0x1a&#45;&gt;0x18</title>
<path fill="none" stroke="black" d="M199.813,-144.765C205.952,-133.456 214.106,-118.437 220.234,-107.147"/>
</g>
<!-- 0x11 -->
<g id="node8" class="node"><title>0x11</title>
<polygon fill="none" stroke="black" points="182,-36 128,-36 128,-0 182,-0 182,-36"/>
<text text-anchor="middle" x="155" y="-14.3" font-family="Times,serif" font-size="14.00">0</text>
</g>
<!-- 0x17&#45;&gt;0x11 -->
<g id="edge7" class="edge"><title>0x17&#45;&gt;0x11</title>
<path fill="none" stroke="black" stroke-dasharray="5,2" d="M154.247,-71.6966C154.402,-60.8463 154.601,-46.9167 154.756,-36.1043"/>
</g>
<!-- 0x10 -->
<g id="node9" class="node"><title>0x10</title>
<polygon fill="none" stroke="black" points="255,-36 201,-36 201,-0 255,-0 255,-36"/>
<text text-anchor="middle" x="228" y="-14.3" font-family="Times,serif" font-size="14.00">1</text>
</g>
<!-- 0x17&#45;&gt;0x10 -->
<g id="edge6" class="edge"><title>0x17&#45;&gt;0x10</title>
<path fill="none" stroke="black" d="M169.333,-74.496C181.102,-63.3632 197.386,-47.9589 209.813,-36.2038"/>
</g>
<!-- 0x18&#45;&gt;0x11 -->
<g id="edge8" class="edge"><title>0x18&#45;&gt;0x11</title>
<path fill="none" stroke="black" d="M213.667,-74.496C201.898,-63.3632 185.614,-47.9589 173.187,-36.2038"/>
</g>
<!-- 0x18&#45;&gt;0x10 -->
<g id="edge9" class="edge"><title>0x18&#45;&gt;0x10</title>
<path fill="none" stroke="black" stroke-dasharray="5,2" d="M228.753,-71.6966C228.598,-60.8463 228.399,-46.9167 228.244,-36.1043"/>
</g>
</g>
</svg>
